<mxfile host="Electron" modified="2024-03-14T20:01:20.524Z" agent="Mozilla/5.0 (Windows NT 10.0; Win64; x64) AppleWebKit/537.36 (KHTML, like Gecko) draw.io/21.5.1 Chrome/112.0.5615.204 Electron/24.6.0 Safari/537.36" etag="LH5snc4OuzjeGGY9_AGw" version="21.5.1" type="device">
  <diagram id="C5RBs43oDa-KdzZeNtuy" name="Page-1">
    <mxGraphModel dx="1313" dy="1945" grid="1" gridSize="10" guides="1" tooltips="1" connect="1" arrows="1" fold="1" page="1" pageScale="1" pageWidth="827" pageHeight="1169" math="0" shadow="0">
      <root>
        <mxCell id="WIyWlLk6GJQsqaUBKTNV-0" />
        <mxCell id="WIyWlLk6GJQsqaUBKTNV-1" parent="WIyWlLk6GJQsqaUBKTNV-0" />
        <mxCell id="aBhYpScGX7h8-CQTTgaw-31" value="" style="rounded=0;whiteSpace=wrap;html=1;fillColor=#f9f7ed;strokeColor=#36393d;" vertex="1" parent="WIyWlLk6GJQsqaUBKTNV-1">
          <mxGeometry y="-80" width="760" height="680" as="geometry" />
        </mxCell>
        <mxCell id="aBhYpScGX7h8-CQTTgaw-6" style="edgeStyle=orthogonalEdgeStyle;orthogonalLoop=1;jettySize=auto;html=1;exitX=1;exitY=0.5;exitDx=0;exitDy=0;entryX=0.25;entryY=0;entryDx=0;entryDy=0;curved=1;strokeWidth=2;" edge="1" parent="WIyWlLk6GJQsqaUBKTNV-1" source="aBhYpScGX7h8-CQTTgaw-0" target="aBhYpScGX7h8-CQTTgaw-2">
          <mxGeometry relative="1" as="geometry" />
        </mxCell>
        <mxCell id="aBhYpScGX7h8-CQTTgaw-7" value="Création CSV avec Pandas" style="edgeLabel;html=1;align=center;verticalAlign=middle;resizable=0;points=[];" vertex="1" connectable="0" parent="aBhYpScGX7h8-CQTTgaw-6">
          <mxGeometry x="-0.1778" y="-7" relative="1" as="geometry">
            <mxPoint x="-10" y="3" as="offset" />
          </mxGeometry>
        </mxCell>
        <mxCell id="aBhYpScGX7h8-CQTTgaw-0" value="Récupération des applications locales au système&amp;nbsp;" style="rounded=1;whiteSpace=wrap;html=1;fillColor=#dae8fc;strokeColor=#6c8ebf;" vertex="1" parent="WIyWlLk6GJQsqaUBKTNV-1">
          <mxGeometry x="80" y="80" width="160" height="120" as="geometry" />
        </mxCell>
        <mxCell id="aBhYpScGX7h8-CQTTgaw-1" value="Récupération des Common Vulnerabilty and Exposures via MITRE" style="rounded=1;whiteSpace=wrap;html=1;fillColor=#dae8fc;strokeColor=#6c8ebf;" vertex="1" parent="WIyWlLk6GJQsqaUBKTNV-1">
          <mxGeometry x="560" y="80" width="160" height="120" as="geometry" />
        </mxCell>
        <mxCell id="aBhYpScGX7h8-CQTTgaw-13" style="edgeStyle=orthogonalEdgeStyle;rounded=0;orthogonalLoop=1;jettySize=auto;html=1;exitX=0.5;exitY=1;exitDx=0;exitDy=0;entryX=0.5;entryY=0;entryDx=0;entryDy=0;strokeWidth=3;" edge="1" parent="WIyWlLk6GJQsqaUBKTNV-1" source="aBhYpScGX7h8-CQTTgaw-2" target="aBhYpScGX7h8-CQTTgaw-3">
          <mxGeometry relative="1" as="geometry" />
        </mxCell>
        <mxCell id="aBhYpScGX7h8-CQTTgaw-14" value="Envoie d&#39;un object composé de &lt;br&gt;classes et d&#39;autres informations" style="edgeLabel;html=1;align=center;verticalAlign=middle;resizable=0;points=[];" vertex="1" connectable="0" parent="aBhYpScGX7h8-CQTTgaw-13">
          <mxGeometry x="-0.12" relative="1" as="geometry">
            <mxPoint as="offset" />
          </mxGeometry>
        </mxCell>
        <mxCell id="aBhYpScGX7h8-CQTTgaw-2" value="Vérification et mise en forme du résultat" style="rounded=1;whiteSpace=wrap;html=1;fillColor=#dae8fc;strokeColor=#6c8ebf;" vertex="1" parent="WIyWlLk6GJQsqaUBKTNV-1">
          <mxGeometry x="320" y="240" width="160" height="120" as="geometry" />
        </mxCell>
        <mxCell id="aBhYpScGX7h8-CQTTgaw-3" value="Interface graphique&amp;nbsp;" style="rounded=1;whiteSpace=wrap;html=1;fillColor=#d5e8d4;strokeColor=#82b366;" vertex="1" parent="WIyWlLk6GJQsqaUBKTNV-1">
          <mxGeometry x="320" y="440" width="160" height="120" as="geometry" />
        </mxCell>
        <mxCell id="aBhYpScGX7h8-CQTTgaw-10" value="" style="endArrow=classic;startArrow=classic;html=1;exitX=0.75;exitY=0;exitDx=0;exitDy=0;entryX=0;entryY=0.5;entryDx=0;entryDy=0;curved=1;strokeWidth=2;" edge="1" parent="WIyWlLk6GJQsqaUBKTNV-1" source="aBhYpScGX7h8-CQTTgaw-2" target="aBhYpScGX7h8-CQTTgaw-1">
          <mxGeometry width="50" height="50" relative="1" as="geometry">
            <mxPoint x="450" y="200" as="sourcePoint" />
            <mxPoint x="500" y="150" as="targetPoint" />
            <Array as="points">
              <mxPoint x="440" y="140" />
            </Array>
          </mxGeometry>
        </mxCell>
        <mxCell id="aBhYpScGX7h8-CQTTgaw-11" value="Check CSV" style="edgeLabel;html=1;align=center;verticalAlign=middle;resizable=0;points=[];" vertex="1" connectable="0" parent="aBhYpScGX7h8-CQTTgaw-10">
          <mxGeometry x="-0.0444" y="-14" relative="1" as="geometry">
            <mxPoint x="45" y="-4" as="offset" />
          </mxGeometry>
        </mxCell>
        <mxCell id="aBhYpScGX7h8-CQTTgaw-15" value="&lt;h1&gt;get_csv.py&lt;/h1&gt;&lt;div&gt;À l&#39;aide de panda on stocke de manière claire le applications de l&#39;ordinateur ainsi que leurs versions, constructeur, etc&lt;/div&gt;" style="text;html=1;strokeColor=none;fillColor=#CCCCCC;spacing=5;spacingTop=-20;whiteSpace=wrap;overflow=hidden;rounded=0;fontColor=#333333;fillStyle=hatch;" vertex="1" parent="WIyWlLk6GJQsqaUBKTNV-1">
          <mxGeometry x="80" y="-40" width="160" height="120" as="geometry" />
        </mxCell>
        <mxCell id="aBhYpScGX7h8-CQTTgaw-16" value="&lt;h1&gt;exemple.py&lt;/h1&gt;&lt;div&gt;On obtient de l&#39;api MITRE les CVE et les applications et constructeurs associés&amp;nbsp;&lt;/div&gt;" style="text;html=1;strokeColor=none;fillColor=#CCCCCC;spacing=5;spacingTop=-20;whiteSpace=wrap;overflow=hidden;rounded=0;fillStyle=hatch;" vertex="1" parent="WIyWlLk6GJQsqaUBKTNV-1">
          <mxGeometry x="560" y="-40" width="160" height="120" as="geometry" />
        </mxCell>
        <mxCell id="aBhYpScGX7h8-CQTTgaw-17" value="&lt;h1&gt;exemple.py&lt;/h1&gt;&lt;div&gt;Vérification des données contre celles de MITRE. Compaction des résultats positifs dans des objets dédiés. Envoi d&#39;un package pour l&#39;affichage.&amp;nbsp;&lt;/div&gt;" style="text;html=1;strokeColor=none;fillColor=none;spacing=5;spacingTop=-20;whiteSpace=wrap;overflow=hidden;rounded=0;" vertex="1" parent="WIyWlLk6GJQsqaUBKTNV-1">
          <mxGeometry x="480" y="240" width="190" height="120" as="geometry" />
        </mxCell>
        <mxCell id="aBhYpScGX7h8-CQTTgaw-18" value="&lt;h1&gt;exemple.py&lt;/h1&gt;&lt;p&gt;Affichage du résultat de manière tout d&#39;abord très basique&amp;nbsp;&lt;/p&gt;" style="text;html=1;strokeColor=none;fillColor=none;spacing=5;spacingTop=-20;whiteSpace=wrap;overflow=hidden;rounded=0;" vertex="1" parent="WIyWlLk6GJQsqaUBKTNV-1">
          <mxGeometry x="480" y="440" width="190" height="120" as="geometry" />
        </mxCell>
        <mxCell id="aBhYpScGX7h8-CQTTgaw-19" value="Les boutons" style="swimlane;fontStyle=0;childLayout=stackLayout;horizontal=1;startSize=30;horizontalStack=0;resizeParent=1;resizeParentMax=0;resizeLast=0;collapsible=1;marginBottom=0;whiteSpace=wrap;html=1;" vertex="1" parent="WIyWlLk6GJQsqaUBKTNV-1">
          <mxGeometry x="90" y="400" width="140" height="90" as="geometry" />
        </mxCell>
        <mxCell id="aBhYpScGX7h8-CQTTgaw-20" value="Check System" style="text;strokeColor=none;fillColor=none;align=left;verticalAlign=middle;spacingLeft=4;spacingRight=4;overflow=hidden;points=[[0,0.5],[1,0.5]];portConstraint=eastwest;rotatable=0;whiteSpace=wrap;html=1;" vertex="1" parent="aBhYpScGX7h8-CQTTgaw-19">
          <mxGeometry y="30" width="140" height="30" as="geometry" />
        </mxCell>
        <mxCell id="aBhYpScGX7h8-CQTTgaw-21" value="Détails CVE" style="text;strokeColor=none;fillColor=none;align=left;verticalAlign=middle;spacingLeft=4;spacingRight=4;overflow=hidden;points=[[0,0.5],[1,0.5]];portConstraint=eastwest;rotatable=0;whiteSpace=wrap;html=1;" vertex="1" parent="aBhYpScGX7h8-CQTTgaw-19">
          <mxGeometry y="60" width="140" height="30" as="geometry" />
        </mxCell>
        <mxCell id="aBhYpScGX7h8-CQTTgaw-23" value="Vulnérabilité" style="swimlane;fontStyle=0;childLayout=stackLayout;horizontal=1;startSize=30;horizontalStack=0;resizeParent=1;resizeParentMax=0;resizeLast=0;collapsible=1;marginBottom=0;whiteSpace=wrap;html=1;" vertex="1" parent="WIyWlLk6GJQsqaUBKTNV-1">
          <mxGeometry x="90" y="240" width="140" height="150" as="geometry" />
        </mxCell>
        <mxCell id="aBhYpScGX7h8-CQTTgaw-24" value="name : str" style="text;strokeColor=none;fillColor=none;align=left;verticalAlign=middle;spacingLeft=4;spacingRight=4;overflow=hidden;points=[[0,0.5],[1,0.5]];portConstraint=eastwest;rotatable=0;whiteSpace=wrap;html=1;" vertex="1" parent="aBhYpScGX7h8-CQTTgaw-23">
          <mxGeometry y="30" width="140" height="30" as="geometry" />
        </mxCell>
        <mxCell id="aBhYpScGX7h8-CQTTgaw-25" value="cve_id : str" style="text;strokeColor=none;fillColor=none;align=left;verticalAlign=middle;spacingLeft=4;spacingRight=4;overflow=hidden;points=[[0,0.5],[1,0.5]];portConstraint=eastwest;rotatable=0;whiteSpace=wrap;html=1;" vertex="1" parent="aBhYpScGX7h8-CQTTgaw-23">
          <mxGeometry y="60" width="140" height="30" as="geometry" />
        </mxCell>
        <mxCell id="aBhYpScGX7h8-CQTTgaw-26" value="publisher : str" style="text;strokeColor=none;fillColor=none;align=left;verticalAlign=middle;spacingLeft=4;spacingRight=4;overflow=hidden;points=[[0,0.5],[1,0.5]];portConstraint=eastwest;rotatable=0;whiteSpace=wrap;html=1;" vertex="1" parent="aBhYpScGX7h8-CQTTgaw-23">
          <mxGeometry y="90" width="140" height="30" as="geometry" />
        </mxCell>
        <mxCell id="aBhYpScGX7h8-CQTTgaw-27" value="severity_index : str" style="text;strokeColor=none;fillColor=none;align=left;verticalAlign=middle;spacingLeft=4;spacingRight=4;overflow=hidden;points=[[0,0.5],[1,0.5]];portConstraint=eastwest;rotatable=0;whiteSpace=wrap;html=1;" vertex="1" parent="aBhYpScGX7h8-CQTTgaw-23">
          <mxGeometry y="120" width="140" height="30" as="geometry" />
        </mxCell>
        <mxCell id="aBhYpScGX7h8-CQTTgaw-29" value="" style="rounded=0;whiteSpace=wrap;html=1;fillStyle=hatch;fillColor=#CCCCCC;strokeColor=none;" vertex="1" parent="WIyWlLk6GJQsqaUBKTNV-1">
          <mxGeometry x="80" y="230" width="160" height="270" as="geometry" />
        </mxCell>
      </root>
    </mxGraphModel>
  </diagram>
</mxfile>
